<?xml version="1.0" encoding="utf-8"?>
<svg version="1.1" xmlns:xlink="http://www.w3.org/1999/xlink" width="24px" height="22px" xmlns="http://www.w3.org/2000/svg">
  <defs>
    <mask fill="white" id="clip310">
      <path d="M 24 4.88888888888891  L 24 17.1111111111111  C 24 19.8488888888889  22.7199999999999 22  21.0909090909091 22  L 2.90909090909087 22  C 1.28000000000008 22  0 19.8488888888889  0 17.1111111111111  L 0 4.88888888888891  C 0 2.15111111111116  1.28000000000008 0  2.90909090909087 0  L 21.0909090909091 0  C 22.7199999999999 0  24 2.15111111111116  24 4.88888888888891  Z " fill-rule="evenodd" />
    </mask>
  </defs>
  <g transform="matrix(1 0 0 1 -921 -233 )">
    <path d="M 24 4.88888888888891  L 24 17.1111111111111  C 24 19.8488888888889  22.7199999999999 22  21.0909090909091 22  L 2.90909090909087 22  C 1.28000000000008 22  0 19.8488888888889  0 17.1111111111111  L 0 4.88888888888891  C 0 2.15111111111116  1.28000000000008 0  2.90909090909087 0  L 21.0909090909091 0  C 22.7199999999999 0  24 2.15111111111116  24 4.88888888888891  Z " fill-rule="nonzero" fill="#ffffff" stroke="none" transform="matrix(1 0 0 1 921 233 )" />
    <path d="M 24 4.88888888888891  L 24 17.1111111111111  C 24 19.8488888888889  22.7199999999999 22  21.0909090909091 22  L 2.90909090909087 22  C 1.28000000000008 22  0 19.8488888888889  0 17.1111111111111  L 0 4.88888888888891  C 0 2.15111111111116  1.28000000000008 0  2.90909090909087 0  L 21.0909090909091 0  C 22.7199999999999 0  24 2.15111111111116  24 4.88888888888891  Z " stroke-width="2" stroke="#d9d9d9" fill="none" transform="matrix(1 0 0 1 921 233 )" mask="url(#clip310)" />
  </g>
</svg>