<?xml version="1.0" encoding="utf-8"?>
<svg version="1.1" xmlns:xlink="http://www.w3.org/1999/xlink" width="22px" height="10px" preserveAspectRatio="xMinYMid meet" viewBox="656 275  22 8" xmlns="http://www.w3.org/2000/svg">
  <g transform="matrix(0 -1 1 0 388 946 )">
    <path d="M 0 0.400000000000091  L 3.60000000000002 1.60000000000014  L 6.80000000000007 8.40000000000009  L 12 19.6000000000001  L 14 29.2  L 15.6 34.4000000000001  L 14 40  L 24.5 50.6000000000001  L 24.5 61.8000000000002  L 25.6 78  L 28.8000000000001 85.2  L 28.8000000000001 92.8000000000002  L 39.6 108  L 43.2 116.4  L 45.2 120.4  L 52 126  L 52 130.8  L 48.8000000000001 132.4  L 54.5 142  L 54.5 154.4  L 58.8000000000001 161.2  L 60.4000000000001 168.4  L 64.8000000000001 177.6  L 77.2 198.8  L 78.8000000000001 203.6  L 78.8000000000001 209.2  L 87.6 216.4  L 92.8000000000001 225.2  " stroke-width="5" stroke="#12a7f5" fill="none" transform="matrix(1 0 0 1 612 131 )" />
  </g>
</svg>