<?xml version="1.0" encoding="utf-8"?>
<svg version="1.1" xmlns:xlink="http://www.w3.org/1999/xlink" width="12px" height="12px" xmlns="http://www.w3.org/2000/svg">
  <g transform="matrix(1 0 0 1 -658 -266 )">
    <path d="M 664 267  C 666.8 267  669 269.2  669 272  C 669 274.8  666.8 277  664 277  C 661.2 277  659 274.8  659 272  C 659 269.2  661.2 267  664 267  Z " fill-rule="nonzero" fill="#ff9900" stroke="none" />
    <path d="M 664 267  C 666.8 267  669 269.2  669 272  C 669 274.8  666.8 277  664 277  C 661.2 277  659 274.8  659 272  C 659 269.2  661.2 267  664 267  Z " stroke-width="2" stroke="#ffffff" fill="none" />
  </g>
</svg>