<?xml version="1.0" encoding="utf-8"?>
<svg version="1.1" xmlns:xlink="http://www.w3.org/1999/xlink" width="25px" height="34px" xmlns="http://www.w3.org/2000/svg">
  <defs>
    <mask fill="white" id="clip153">
      <path d="M 18.9806465103635 27.0256946102232  C 16.2039813680763 30.9588699296651  13.4493142985356 34  13.1410256410256 34  C 12.5 34  0 20.8516666666669  0 13.875  C 0 6.89833333333354  5.50000000000011 0  12.5 0  C 19.4999999999999 0  25 6.89833333333354  25 13.875  C 25 17.4963762337915  21.9775105245641 22.7806052773885  18.9806465103635 27.0256946102232  Z M 8.75 12.5925925925926  C 8.75 14.7081481481482  10.4 16.3703703703704  12.5 16.3703703703704  C 14.6 16.3703703703704  16.25 14.7081481481482  16.25 12.5925925925926  C 16.25 10.477037037037  14.6 8.81481481481478  12.5 8.81481481481478  C 10.4 8.81481481481478  8.75 10.477037037037  8.75 12.5925925925926  Z " fill-rule="evenodd" />
    </mask>
  </defs>
  <g transform="matrix(1 0 0 1 -604 -107 )">
    <path d="M 18.9806465103635 27.0256946102232  C 16.2039813680763 30.9588699296651  13.4493142985356 34  13.1410256410256 34  C 12.5 34  0 20.8516666666669  0 13.875  C 0 6.89833333333354  5.50000000000011 0  12.5 0  C 19.4999999999999 0  25 6.89833333333354  25 13.875  C 25 17.4963762337915  21.9775105245641 22.7806052773885  18.9806465103635 27.0256946102232  Z M 8.75 12.5925925925926  C 8.75 14.7081481481482  10.4 16.3703703703704  12.5 16.3703703703704  C 14.6 16.3703703703704  16.25 14.7081481481482  16.25 12.5925925925926  C 16.25 10.477037037037  14.6 8.81481481481478  12.5 8.81481481481478  C 10.4 8.81481481481478  8.75 10.477037037037  8.75 12.5925925925926  Z " fill-rule="nonzero" fill="#0089d4" stroke="none" transform="matrix(1 0 0 1 604 107 )" />
    <path d="M 18.9806465103635 27.0256946102232  C 16.2039813680763 30.9588699296651  13.4493142985356 34  13.1410256410256 34  C 12.5 34  0 20.8516666666669  0 13.875  C 0 6.89833333333354  5.50000000000011 0  12.5 0  C 19.4999999999999 0  25 6.89833333333354  25 13.875  C 25 17.4963762337915  21.9775105245641 22.7806052773885  18.9806465103635 27.0256946102232  Z " stroke-width="4" stroke="#ffffff" fill="none" transform="matrix(1 0 0 1 604 107 )" mask="url(#clip153)" />
    <path d="M 8.75 12.5925925925926  C 8.75 14.7081481481482  10.4 16.3703703703704  12.5 16.3703703703704  C 14.6 16.3703703703704  16.25 14.7081481481482  16.25 12.5925925925926  C 16.25 10.477037037037  14.6 8.81481481481478  12.5 8.81481481481478  C 10.4 8.81481481481478  8.75 10.477037037037  8.75 12.5925925925926  Z " stroke-width="4" stroke="#ffffff" fill="none" transform="matrix(1 0 0 1 604 107 )" mask="url(#clip153)" />
  </g>
</svg>