<?xml version="1.0" encoding="utf-8"?>
<svg version="1.1" xmlns:xlink="http://www.w3.org/1999/xlink" width="41px" height="241px" xmlns="http://www.w3.org/2000/svg">
  <g transform="matrix(1 0 0 1 -673 -342 )">
    <path d="M 24.8000000000002 0.200000000000045  L 29.5999999999999 11.8000000000002  L 35.6666666666665 34.6666666666667  L 31.6666666666665 46.6666666666667  L 23 55  L 23 71.3333333333333  L 23.2 94.6000000000001  L 26.3333333333333 128.666666666667  L 22 146.6  L 14 155.4  L 15.5999999999999 166.666666666667  L 19 176.666666666667  L 19 184  L 12.8000000000002 194.2  L 12.8000000000002 201  L 14 205  L 15.5999999999999 207.4  L 17.2 212.6  L 15.5999999999999 224.2  L 15.5999999999999 233.8  L 10.8000000000002 235  L 0 235  L 0 235.4  " stroke-width="4" stroke-dasharray="12,4" stroke="#12a7f5" fill="none" transform="matrix(1 0 0 1 675 344 )" />
  </g>
</svg>