<?xml version="1.0" encoding="utf-8"?>
<svg version="1.1" xmlns:xlink="http://www.w3.org/1999/xlink" width="36px" height="36px" xmlns="http://www.w3.org/2000/svg">
  <g transform="matrix(1 0 0 1 -681 -329 )">
    <path d="M 699 330  C 708.52 330  716 337.48  716 347  C 716 356.52  708.52 364  699 364  C 689.48 364  682 356.52  682 347  C 682 337.48  689.48 330  699 330  Z " fill-rule="nonzero" fill="#0094e6" stroke="none" />
    <path d="M 699 330  C 708.52 330  716 337.48  716 347  C 716 356.52  708.52 364  699 364  C 689.48 364  682 356.52  682 347  C 682 337.48  689.48 330  699 330  Z " stroke-width="2" stroke="#ffffff" fill="none" />
  </g>
</svg>