<?xml version="1.0" encoding="utf-8"?>
<svg version="1.1" xmlns:xlink="http://www.w3.org/1999/xlink" width="26px" height="36px" xmlns="http://www.w3.org/2000/svg">
  <defs>
    <mask fill="white" id="clip154">
      <path d="M 21.6251877841175 25.2914361126363  C 18.2382341268997 30.6498019951273  14.0579364416071 35.3599999999999  13.6666666666667 35.3599999999999  C 13.3163967850536 35.3599999999999  9.5615074319046 31.5852155768398  6.0762976653956 26.9498686824718  C 2.92812757357274 22.7627862869433  0 17.873536049809  0 14.4300000000001  C 0 11.3686728109142  1.01824643987277 8.32184791960799  2.74229068014017 5.82225025639218  C 5.10444973981612 2.39748473831378  8.79156574155797 0  13 0  C 20.2799999999999 0  26 7.17426666666688  26 14.4300000000001  C 26 17.4273096107922  24.0091094907222 21.5199275441685  21.6251877841175 25.2914361126363  Z M 9.10000000000002 13.0962962962963  C 9.10000000000002 15.296474074074  10.816 17.0251851851851  13 17.0251851851851  C 15.184 17.0251851851851  16.9 15.296474074074  16.9 13.0962962962963  C 16.9 10.8961185185185  15.184 9.16740740740738  13 9.16740740740738  C 10.816 9.16740740740738  9.10000000000002 10.8961185185185  9.10000000000002 13.0962962962963  Z " fill-rule="evenodd" />
    </mask>
  </defs>
  <g transform="matrix(1 0 0 1 -656 -554 )">
    <path d="M 21.6251877841175 25.2914361126363  C 18.2382341268997 30.6498019951273  14.0579364416071 35.3599999999999  13.6666666666667 35.3599999999999  C 13.3163967850536 35.3599999999999  9.5615074319046 31.5852155768398  6.0762976653956 26.9498686824718  C 2.92812757357274 22.7627862869433  0 17.873536049809  0 14.4300000000001  C 0 11.3686728109142  1.01824643987277 8.32184791960799  2.74229068014017 5.82225025639218  C 5.10444973981612 2.39748473831378  8.79156574155797 0  13 0  C 20.2799999999999 0  26 7.17426666666688  26 14.4300000000001  C 26 17.4273096107922  24.0091094907222 21.5199275441685  21.6251877841175 25.2914361126363  Z M 9.10000000000002 13.0962962962963  C 9.10000000000002 15.296474074074  10.816 17.0251851851851  13 17.0251851851851  C 15.184 17.0251851851851  16.9 15.296474074074  16.9 13.0962962962963  C 16.9 10.8961185185185  15.184 9.16740740740738  13 9.16740740740738  C 10.816 9.16740740740738  9.10000000000002 10.8961185185185  9.10000000000002 13.0962962962963  Z " fill-rule="nonzero" fill="#0089d4" stroke="none" transform="matrix(1 0 0 1 656 554 )" />
    <path d="M 21.6251877841175 25.2914361126363  C 18.2382341268997 30.6498019951273  14.0579364416071 35.3599999999999  13.6666666666667 35.3599999999999  C 13.3163967850536 35.3599999999999  9.5615074319046 31.5852155768398  6.0762976653956 26.9498686824718  C 2.92812757357274 22.7627862869433  0 17.873536049809  0 14.4300000000001  C 0 11.3686728109142  1.01824643987277 8.32184791960799  2.74229068014017 5.82225025639218  C 5.10444973981612 2.39748473831378  8.79156574155797 0  13 0  C 20.2799999999999 0  26 7.17426666666688  26 14.4300000000001  C 26 17.4273096107922  24.0091094907222 21.5199275441685  21.6251877841175 25.2914361126363  Z " stroke-width="4" stroke="#ffffff" fill="none" transform="matrix(1 0 0 1 656 554 )" mask="url(#clip154)" />
    <path d="M 9.10000000000002 13.0962962962963  C 9.10000000000002 15.296474074074  10.816 17.0251851851851  13 17.0251851851851  C 15.184 17.0251851851851  16.9 15.296474074074  16.9 13.0962962962963  C 16.9 10.8961185185185  15.184 9.16740740740738  13 9.16740740740738  C 10.816 9.16740740740738  9.10000000000002 10.8961185185185  9.10000000000002 13.0962962962963  Z " stroke-width="4" stroke="#ffffff" fill="none" transform="matrix(1 0 0 1 656 554 )" mask="url(#clip154)" />
  </g>
</svg>