<?xml version="1.0" encoding="utf-8"?>
<svg version="1.1" xmlns:xlink="http://www.w3.org/1999/xlink" width="64px" height="64px" xmlns="http://www.w3.org/2000/svg">
  <g transform="matrix(1 0 0 1 -1291 -1 )">
    <path d="M 1323 1  C 1340.92 1  1355 15.08  1355 33  C 1355 50.92  1340.92 65  1323 65  C 1305.08 65  1291 50.92  1291 33  C 1291 15.08  1305.08 1  1323 1  Z " fill-rule="nonzero" fill="#ffffff" stroke="none" />
    <path d="M 1323 1.5  C 1340.64 1.5  1354.5 15.36  1354.5 33  C 1354.5 50.64  1340.64 64.5  1323 64.5  C 1305.36 64.5  1291.5 50.64  1291.5 33  C 1291.5 15.36  1305.36 1.5  1323 1.5  Z " stroke-width="1" stroke="#bfbfbf" fill="none" />
  </g>
</svg>