<?xml version="1.0" encoding="utf-8"?>
<svg version="1.1" xmlns:xlink="http://www.w3.org/1999/xlink" width="56px" height="56px" xmlns="http://www.w3.org/2000/svg">
  <g transform="matrix(1 0 0 1 -169 -6 )">
    <path d="M 197 10  C 210.44 10  221 20.56  221 34  C 221 47.44  210.44 58  197 58  C 183.56 58  173 47.44  173 34  C 173 20.56  183.56 10  197 10  Z " fill-rule="nonzero" fill="#ffffff" stroke="none" />
    <path d="M 197 8.5  C 211.28 8.5  222.5 19.72  222.5 34  C 222.5 48.28  211.28 59.5  197 59.5  C 182.72 59.5  171.5 48.28  171.5 34  C 171.5 19.72  182.72 8.5  197 8.5  Z " stroke-width="5" stroke="#2b7d2b" fill="none" />
  </g>
</svg>