<?xml version="1.0" encoding="utf-8"?>
<svg version="1.1" xmlns:xlink="http://www.w3.org/1999/xlink" width="52px" height="56px" xmlns="http://www.w3.org/2000/svg">
  <g transform="matrix(1 0 0 1 -719 -6 )">
    <path d="M 0.367659246302082 43.2032133847699  L 4.5816670228885 40.4788421884907  C 8.63285705867816 46.8482951543951  15.7502869594839 51  24 51  C 36.8800000000001 51  47 40.88  47 28  C 47 15.12  36.8800000000001 5  24 5  C 23.7234635910911 5  23.4481994601122 5.00466501907706  23.1742803691643 5.01392026696437  L 23.1742742989125 0.011427396459152  C 23.4484402047108 0.00382547390291155  23.7236984468232 0  24 0  C 32.3548301616029 0  39.7557173517786 3.49779089523285  44.847214034791 9.1379251499624  C 49.3112279301431 14.082961796803  52 20.6748301616028  52 28  C 52 43.68  39.6800000000001 56  24 56  C 13.9618711606736 56  5.30080177736386 50.9507819946062  0.367659246302082 43.2032133847699  Z " fill-rule="nonzero" fill="#2b7d2b" stroke="none" transform="matrix(1 0 0 1 719 6 )" />
  </g>
</svg>