<?xml version="1.0" encoding="utf-8"?>
<svg version="1.1" xmlns:xlink="http://www.w3.org/1999/xlink" width="32px" height="32px" xmlns="http://www.w3.org/2000/svg">
  <g transform="matrix(1 0 0 1 -586 -1982 )">
    <path d="M 602 1982  C 610.96 1982  618 1989.04  618 1998  C 618 2006.96  610.96 2014  602 2014  C 593.04 2014  586 2006.96  586 1998  C 586 1989.04  593.04 1982  602 1982  Z " fill-rule="nonzero" fill="#91c8f6" stroke="none" />
    <path d="M 602 1982.5  C 610.68 1982.5  617.5 1989.32  617.5 1998  C 617.5 2006.68  610.68 2013.5  602 2013.5  C 593.32 2013.5  586.5 2006.68  586.5 1998  C 586.5 1989.32  593.32 1982.5  602 1982.5  Z " stroke-width="1" stroke="#91c8f6" fill="none" />
  </g>
</svg>