<?xml version="1.0" encoding="utf-8"?>
<svg version="1.1" xmlns:xlink="http://www.w3.org/1999/xlink" width="46px" height="26px" xmlns="http://www.w3.org/2000/svg">
  <g transform="matrix(1 0 0 1 -24 -205 )">
    <path d="M 24.5 209  A 3.5 3.5 0 0 1 28 205.5 L 66 205.5  A 3.5 3.5 0 0 1 69.5 209 L 69.5 227  A 3.5 3.5 0 0 1 66 230.5 L 28 230.5  A 3.5 3.5 0 0 1 24.5 227 L 24.5 209  Z " fill-rule="nonzero" fill="#085caf" stroke="none" />
    <path d="M 24.5 209  A 3.5 3.5 0 0 1 28 205.5 L 66 205.5  A 3.5 3.5 0 0 1 69.5 209 L 69.5 227  A 3.5 3.5 0 0 1 66 230.5 L 28 230.5  A 3.5 3.5 0 0 1 24.5 227 L 24.5 209  Z " stroke-width="1" stroke="#0854a0" fill="none" />
  </g>
</svg>