<?xml version="1.0" encoding="utf-8"?>
<svg version="1.1" xmlns:xlink="http://www.w3.org/1999/xlink" width="46px" height="26px" xmlns="http://www.w3.org/2000/svg">
  <g transform="matrix(1 0 0 1 0 -48 )">
    <path d="M 0.5 52  A 3.5 3.5 0 0 1 4 48.5 L 42 48.5  A 3.5 3.5 0 0 1 45.5 52 L 45.5 70  A 3.5 3.5 0 0 1 42 73.5 L 4 73.5  A 3.5 3.5 0 0 1 0.5 70 L 0.5 52  Z " fill-rule="nonzero" fill="#085caf" stroke="none" />
    <path d="M 0.5 52  A 3.5 3.5 0 0 1 4 48.5 L 42 48.5  A 3.5 3.5 0 0 1 45.5 52 L 45.5 70  A 3.5 3.5 0 0 1 42 73.5 L 4 73.5  A 3.5 3.5 0 0 1 0.5 70 L 0.5 52  Z " stroke-width="1" stroke="#0854a0" fill="none" />
  </g>
</svg>