<?xml version="1.0" encoding="utf-8"?>
<svg version="1.1" xmlns:xlink="http://www.w3.org/1999/xlink" width="51px" height="25px" xmlns="http://www.w3.org/2000/svg">
  <g transform="matrix(1 0 0 1 -521 -62 )">
    <path d="M 521 79.25  C 521 79.25  521 64  521 64  C 521 62.8954305003384  521.895430500338 62  523 62  C 523 62  570 62  570 62  C 571.104569499662 62  572 62.8954305003384  572 64  C 572 64  572 79.25  572 79.25  C 572 80.3545694996616  571.104569499662 81.25  570 81.25  C 570 81.25  552.105172413793 81.25  552.105172413793 81.25  C 552.105172413793 81.25  545.122413793103 86.4999999999999  545.122413793103 86.4999999999999  C 545.122413793103 86.4999999999999  539.605172413793 81.25  539.605172413793 81.25  C 539.605172413793 81.25  523 81.25  523 81.25  C 521.895430500338 81.25  521 80.3545694996616  521 79.25  Z " fill-rule="nonzero" fill="#0094e6" stroke="none" />
  </g>
</svg>