<?xml version="1.0" encoding="utf-8"?>
<svg version="1.1" xmlns:xlink="http://www.w3.org/1999/xlink" width="6px" height="69px" xmlns="http://www.w3.org/2000/svg">
  <g transform="matrix(1 0 0 1 -609 -94 )">
    <path d="M 611 97  A 1 1 0 0 1 612 96 A 1 1 0 0 1 613 97 L 613 161  L 612 161  A 1 1 0 0 1 611 160 L 611 97  Z " fill-rule="nonzero" fill="#ffffff" stroke="none" fill-opacity="0" />
    <path d="M 610 97  A 2 2 0 0 1 612 95 A 2 2 0 0 1 614 97 L 614 162  L 612 162  A 2 2 0 0 1 610 160 L 610 97  Z " stroke-width="2" stroke-dasharray="2,2" stroke="#0a6ed1" fill="none" />
  </g>
</svg>