<?xml version="1.0" encoding="utf-8"?>
<svg version="1.1" xmlns:xlink="http://www.w3.org/1999/xlink" width="73px" height="73px" xmlns="http://www.w3.org/2000/svg">
  <g transform="matrix(1 0 0 1 -1275 -585 )">
    <path d="M 1311.5 587  C 1330.82 587  1346 602.18  1346 621.5  C 1346 640.82  1330.82 656  1311.5 656  C 1292.18 656  1277 640.82  1277 621.5  C 1277 602.18  1292.18 587  1311.5 587  Z " fill-rule="nonzero" fill="#ffffff" stroke="none" />
    <path d="M 1311.5 586.5  C 1331.1 586.5  1346.5 601.9  1346.5 621.5  C 1346.5 641.1  1331.1 656.5  1311.5 656.5  C 1291.9 656.5  1276.5 641.1  1276.5 621.5  C 1276.5 601.9  1291.9 586.5  1311.5 586.5  Z " stroke-width="3" stroke="#0094e6" fill="none" />
  </g>
</svg>