<?xml version="1.0" encoding="utf-8"?>
<svg version="1.1" xmlns:xlink="http://www.w3.org/1999/xlink" width="12px" height="12px" xmlns="http://www.w3.org/2000/svg">
  <g transform="matrix(1 0 0 1 -368 -62 )">
    <path d="M 370 68  A 4 4 0 0 1 374 64 A 4 4 0 0 1 378 68 A 4 4 0 0 1 374 72 A 4 4 0 0 1 370 68 Z " fill-rule="nonzero" fill="#ffffff" stroke="none" fill-opacity="0" />
    <path d="M 369 68  A 5 5 0 0 1 374 63 A 5 5 0 0 1 379 68 A 5 5 0 0 1 374 73 A 5 5 0 0 1 369 68 Z " stroke-width="2" stroke-dasharray="2,2" stroke="#0a6ed1" fill="none" />
  </g>
</svg>