<?xml version="1.0" encoding="utf-8"?>
<svg version="1.1" xmlns:xlink="http://www.w3.org/1999/xlink" width="404px" height="30px" xmlns="http://www.w3.org/2000/svg">
  <defs>
    <mask fill="white" id="clip825">
      <path d="M 0 26  L 0 4  C 0 1.76  3.41846153846151 0  7.76923076923077 0  L 396.230769230769 0  C 400.581538461538 0  404 1.76  404 4  L 404 15  L 404 26  C 404 28.24  400.581538461538 30  396.230769230769 30  L 7.76923076923077 30  C 3.41846153846151 30  0 28.24  0 26  Z " fill-rule="evenodd" />
    </mask>
  </defs>
  <g transform="matrix(1 0 0 1 -190 -57 )">
    <path d="M 0 26  L 0 4  C 0 1.76  3.41846153846151 0  7.76923076923077 0  L 396.230769230769 0  C 400.581538461538 0  404 1.76  404 4  L 404 15  L 404 26  C 404 28.24  400.581538461538 30  396.230769230769 30  L 7.76923076923077 30  C 3.41846153846151 30  0 28.24  0 26  Z " fill-rule="nonzero" fill="#ffffff" stroke="none" transform="matrix(1 0 0 1 190 57 )" />
    <path d="M 0 26  L 0 4  C 0 1.76  3.41846153846151 0  7.76923076923077 0  L 396.230769230769 0  C 400.581538461538 0  404 1.76  404 4  L 404 15  L 404 26  C 404 28.24  400.581538461538 30  396.230769230769 30  L 7.76923076923077 30  C 3.41846153846151 30  0 28.24  0 26  Z " stroke-width="2" stroke="#0a6ed1" fill="none" transform="matrix(1 0 0 1 190 57 )" mask="url(#clip825)" />
  </g>
</svg>