<?xml version="1.0" encoding="utf-8"?>
<svg version="1.1" xmlns:xlink="http://www.w3.org/1999/xlink" width="24px" height="22px" xmlns="http://www.w3.org/2000/svg">
  <g transform="matrix(1 0 0 1 -67 -105 )">
    <path d="M 23.2901785714286 9.94125  C 23.7633928571429 11.1695833333333  24 12.6958333333333  24 14.52  C 24 16.0416666666667  23.4330357142857 18.10875  22.2991071428571 20.72125  C 22.2723214285714 20.7854166666667  22.2254464285714 20.8954166666667  22.1584821428571 21.05125  C 22.0915178571429 21.2070833333333  22.03125 21.3445833333333  21.9776785714286 21.46375  C 21.9241071428571 21.5829166666667  21.8660714285714 21.68375  21.8035714285714 21.76625  C 21.6964285714286 21.9220833333333  21.5714285714286 22  21.4285714285714 22  C 21.2946428571429 22  21.1897321428571 21.9541666666667  21.1138392857143 21.8625  C 21.0379464285714 21.7708333333333  21 21.65625  21 21.51875  C 21 21.43625  21.0111607142857 21.3147916666667  21.0334821428571 21.154375  C 21.0558035714286 20.9939583333333  21.0669642857143 20.88625  21.0669642857143 20.83125  C 21.1116071428571 20.2079166666667  21.1339285714286 19.6441666666667  21.1339285714286 19.14  C 21.1339285714286 18.2141666666667  21.0558035714286 17.3845833333333  20.8995535714286 16.65125  C 20.7433035714286 15.9179166666667  20.5267857142857 15.283125  20.25 14.746875  C 19.9732142857143 14.210625  19.6160714285714 13.7477083333333  19.1785714285714 13.358125  C 18.7410714285714 12.9685416666667  18.2700892857143 12.65  17.765625 12.4025  C 17.2611607142857 12.155  16.6674107142857 11.9602083333333  15.984375 11.818125  C 15.3013392857143 11.6760416666667  14.6138392857143 11.5775  13.921875 11.5225  C 13.2299107142857 11.4675  12.4464285714286 11.44  11.5714285714286 11.44  L 8.57142857142857 11.44  L 8.57142857142857 14.96  C 8.57142857142857 15.1983333333333  8.48660714285714 15.4045833333333  8.31696428571428 15.57875  C 8.14732142857143 15.7529166666667  7.94642857142857 15.84  7.71428571428572 15.84  C 7.48214285714286 15.84  7.28125 15.7529166666667  7.11160714285714 15.57875  L 0.254464285714286 8.53875  C 0.0848214285714286 8.36458333333333  0 8.15833333333333  0 7.92  C 0 7.68166666666667  0.0848214285714286 7.47541666666667  0.254464285714286 7.30125  L 7.11160714285714 0.261249999999999  C 7.28125 0.0870833333333323  7.48214285714286 0  7.71428571428572 0  C 7.94642857142857 0  8.14732142857143 0.0870833333333323  8.31696428571428 0.261249999999999  C 8.48660714285714 0.435416666666664  8.57142857142857 0.641666666666664  8.57142857142857 0.880000000000001  L 8.57142857142857 4.4  L 11.5714285714286 4.4  C 17.9375 4.4  21.84375 6.24708333333333  23.2901785714286 9.94125  Z " fill-rule="nonzero" fill="#aaaaaa" stroke="none" transform="matrix(1 0 0 1 67 105 )" />
  </g>
</svg>