<?xml version="1.0" encoding="utf-8"?>
<svg version="1.1" xmlns:xlink="http://www.w3.org/1999/xlink" width="78px" height="32px" xmlns="http://www.w3.org/2000/svg">
  <defs>
    <linearGradient gradientUnits="userSpaceOnUse" x1="1552" y1="697" x2="1630" y2="697" id="LinearGradient3437">
      <stop id="Stop3438" stop-color="#23cff5" offset="0" />
      <stop id="Stop3439" stop-color="#33ff99" offset="1" />
    </linearGradient>
  </defs>
  <g transform="matrix(1 0 0 1 -1552 -681 )">
    <path d="M 1552.5 683  A 1.5 1.5 0 0 1 1554 681.5 L 1628 681.5  A 1.5 1.5 0 0 1 1629.5 683 L 1629.5 711  A 1.5 1.5 0 0 1 1628 712.5 L 1554 712.5  A 1.5 1.5 0 0 1 1552.5 711 L 1552.5 683  Z " fill-rule="nonzero" fill="#ffffff" stroke="none" fill-opacity="0" />
    <path d="M 1552.5 683  A 1.5 1.5 0 0 1 1554 681.5 L 1628 681.5  A 1.5 1.5 0 0 1 1629.5 683 L 1629.5 711  A 1.5 1.5 0 0 1 1628 712.5 L 1554 712.5  A 1.5 1.5 0 0 1 1552.5 711 L 1552.5 683  Z " stroke-width="1" stroke="url(#LinearGradient3437)" fill="none" />
  </g>
</svg>