<?xml version="1.0" encoding="utf-8"?>
<svg version="1.1" xmlns:xlink="http://www.w3.org/1999/xlink" width="733px" height="156px" xmlns="http://www.w3.org/2000/svg">
  <defs>
    <linearGradient gradientUnits="userSpaceOnUse" x1="366.5" y1="0" x2="366.5" y2="156" id="LinearGradient864">
      <stop id="Stop865" stop-color="#23cff5" stop-opacity="0.0784313725490196" offset="0" />
      <stop id="Stop866" stop-color="#33ff99" stop-opacity="0" offset="0.99" />
      <stop id="Stop867" stop-color="#33ff99" stop-opacity="0" offset="1" />
    </linearGradient>
    <linearGradient gradientUnits="userSpaceOnUse" x1="0" y1="78" x2="733" y2="78" id="LinearGradient868">
      <stop id="Stop869" stop-color="#23cff5" offset="0" />
      <stop id="Stop870" stop-color="#33ff99" offset="1" />
    </linearGradient>
    <mask fill="white" id="clip871">
      <path d="M 595.290130796671 73  C 611.850178359096 76  640.756957766666 85.7628083649587  660.658739595719 89  L 732.149651972157 98  L 732.654195149268 99.9778012214571  L 733 100  C 732.89095980273 100  732.777355959829 99.9992006897406  732.659249689116 99.9976045112221  L 733 156  L 672.625290021065 156  L 0.850348027842237 156  L 0 81  C 22.2531026142236 79.3977914814606  45.3222354340071 52  68.8549346016647 48  C 92.3876337693222 44  102.84661117717 42  134.223543400713 40  C 165.600475624257 38  181.862244151946 0  204.821640903686 0  C 227.781037655427 0  248.400713436385 29  266.703923900119 34  C 285.007134363852 39  314.236457537291 63  332.944114149822 61  C 351.651770762349 59  380.455414364183 42  398.31272294887 44  C 416.170031533556 46  443.336679348141 74  466.296076099881 73  C 489.255472851621 72  476.370829666373 64  530.793103448276 65  C 585.215377230178 66  565.488698257462 67.6012052634148  595.290130796671 73  Z " fill-rule="evenodd" />
    </mask>
  </defs>
  <g transform="matrix(1 0 0 1 -42 -128 )">
    <path d="M 595.290130796671 73  C 611.850178359096 76  640.756957766666 85.7628083649587  660.658739595719 89  L 732.149651972157 98  L 732.654195149268 99.9778012214571  L 733 100  C 732.89095980273 100  732.777355959829 99.9992006897406  732.659249689116 99.9976045112221  L 733 156  L 672.625290021065 156  L 0.850348027842237 156  L 0 81  C 22.2531026142236 79.3977914814606  45.3222354340071 52  68.8549346016647 48  C 92.3876337693222 44  102.84661117717 42  134.223543400713 40  C 165.600475624257 38  181.862244151946 0  204.821640903686 0  C 227.781037655427 0  248.400713436385 29  266.703923900119 34  C 285.007134363852 39  314.236457537291 63  332.944114149822 61  C 351.651770762349 59  380.455414364183 42  398.31272294887 44  C 416.170031533556 46  443.336679348141 74  466.296076099881 73  C 489.255472851621 72  476.370829666373 64  530.793103448276 65  C 585.215377230178 66  565.488698257462 67.6012052634148  595.290130796671 73  Z " fill-rule="nonzero" fill="url(#LinearGradient864)" stroke="none" transform="matrix(1 0 0 1 42 128 )" />
    <path d="M 595.290130796671 73  C 611.850178359096 76  640.756957766666 85.7628083649587  660.658739595719 89  L 732.149651972157 98  L 732.654195149268 99.9778012214571  L 733 100  C 732.89095980273 100  732.777355959829 99.9992006897406  732.659249689116 99.9976045112221  L 733 156  L 672.625290021065 156  L 0.850348027842237 156  L 0 81  C 22.2531026142236 79.3977914814606  45.3222354340071 52  68.8549346016647 48  C 92.3876337693222 44  102.84661117717 42  134.223543400713 40  C 165.600475624257 38  181.862244151946 0  204.821640903686 0  C 227.781037655427 0  248.400713436385 29  266.703923900119 34  C 285.007134363852 39  314.236457537291 63  332.944114149822 61  C 351.651770762349 59  380.455414364183 42  398.31272294887 44  C 416.170031533556 46  443.336679348141 74  466.296076099881 73  C 489.255472851621 72  476.370829666373 64  530.793103448276 65  C 585.215377230178 66  565.488698257462 67.6012052634148  595.290130796671 73  Z " stroke-width="4" stroke="url(#LinearGradient868)" fill="none" transform="matrix(1 0 0 1 42 128 )" mask="url(#clip871)" />
  </g>
</svg>