<?xml version="1.0" encoding="utf-8"?>
<svg version="1.1" xmlns:xlink="http://www.w3.org/1999/xlink" width="51px" height="25px" xmlns="http://www.w3.org/2000/svg">
  <g transform="matrix(1 0 0 1 -547 -183 )">
    <path d="M 547 200.25  C 547 200.25  547 185  547 185  C 547 183.895430500338  547.895430500338 183  549 183  C 549 183  596 183  596 183  C 597.104569499662 183  598 183.895430500338  598 185  C 598 185  598 200.25  598 200.25  C 598 201.354569499662  597.104569499662 202.25  596 202.25  C 596 202.25  578.105172413793 202.25  578.105172413793 202.25  C 578.105172413793 202.25  571.122413793103 207.5  571.122413793103 207.5  C 571.122413793103 207.5  565.605172413793 202.25  565.605172413793 202.25  C 565.605172413793 202.25  549 202.25  549 202.25  C 547.895430500338 202.25  547 201.354569499662  547 200.25  Z " fill-rule="nonzero" fill="#0094e6" stroke="none" />
  </g>
</svg>