<?xml version="1.0" encoding="utf-8"?>
<svg version="1.1" xmlns:xlink="http://www.w3.org/1999/xlink" width="48px" height="48px" xmlns="http://www.w3.org/2000/svg">
  <defs>
    <filter x="626px" y="661px" width="48px" height="48px" filterUnits="userSpaceOnUse" id="filter4193">
      <feOffset dx="0" dy="0" in="SourceAlpha" result="shadowOffsetInner" />
      <feGaussianBlur stdDeviation="5" in="shadowOffsetInner" result="shadowGaussian" />
      <feComposite in2="shadowGaussian" operator="atop" in="SourceAlpha" result="shadowComposite" />
      <feColorMatrix type="matrix" values="0 0 0 0 0  0 0 0 0 0  0 0 0 0 0  0 0 0 0.349019607843137 0  " in="shadowComposite" />
    </filter>
    <g id="widget4194">
      <path d="M 650 671  C 657.84 671  664 677.16  664 685  C 664 692.84  657.84 699  650 699  C 642.16 699  636 692.84  636 685  C 636 677.16  642.16 671  650 671  Z " fill-rule="nonzero" fill="#e78c07" stroke="none" />
      <path d="M 650 671.5  C 657.56 671.5  663.5 677.44  663.5 685  C 663.5 692.56  657.56 698.5  650 698.5  C 642.44 698.5  636.5 692.56  636.5 685  C 636.5 677.44  642.44 671.5  650 671.5  Z " stroke-width="1" stroke="#ffffff" fill="none" />
    </g>
  </defs>
  <g transform="matrix(1 0 0 1 -626 -661 )">
    <use xlink:href="#widget4194" filter="url(#filter4193)" />
    <use xlink:href="#widget4194" />
  </g>
</svg>