<?xml version="1.0" encoding="utf-8"?>
<svg version="1.1" xmlns:xlink="http://www.w3.org/1999/xlink" width="218px" height="218px" xmlns="http://www.w3.org/2000/svg">
  <g transform="matrix(1 0 0 1 -1446 -934 )">
    <path d="M 1555.50019265776 934.501128625286  C 1615.19298605569 934.770555105966  1663.5 983.243923727765  1663.5 1043  C 1663.5 1102.92289535664  1614.92289535664 1151.5  1555 1151.5  C 1546.95013799609 1151.5  1538.92579796017 1150.60415288061  1531.07508804875 1148.82933709709  L 1555.48717954062 1043.11249931202  A 0.5 0.5 0 0 0 1555.5 1043 L 1555.50019217197 934.501128623093  Z " fill-rule="nonzero" fill="#5899da" stroke="none" />
    <path d="M 1555.50019265776 934.501128625286  C 1615.19298605569 934.770555105966  1663.5 983.243923727765  1663.5 1043  C 1663.5 1102.92289535664  1614.92289535664 1151.5  1555 1151.5  C 1546.95013799609 1151.5  1538.92579796017 1150.60415288061  1531.07508804875 1148.82933709709  L 1555.48717954062 1043.11249931202  A 0.5 0.5 0 0 0 1555.5 1043 L 1555.50019217197 934.501128623093  Z " stroke-width="1" stroke="#ffffff" fill="none" />
  </g>
</svg>