<?xml version="1.0" encoding="utf-8"?>
<svg version="1.1" xmlns:xlink="http://www.w3.org/1999/xlink" width="21px" height="11px" xmlns="http://www.w3.org/2000/svg">
  <g transform="matrix(1 0 0 1 -685 -967 )">
    <path d="M 15.591796875 8.61762152777777  C 17.158203125 7.84418402777777  18.4609375 6.80497685185185  19.5 5.5  C 18.3125 3.99768518518516  16.8242187500002 2.87413194444446  15.03515625 2.12934027777777  C 15.5117187500002 2.79137731481478  15.75 3.50752314814815  15.75 4.27777777777777  C 15.75 5.45543981481478  15.236328125 6.46281828703701  14.208984375 7.29991319444446  C 13.181640625 8.13700810185185  11.9453125 8.55555555555554  10.5 8.55555555555554  C 9.0546875 8.55555555555554  7.818359375 8.13700810185185  6.791015625 7.29991319444446  C 5.763671875 6.46281828703701  5.25 5.45543981481478  5.25 4.27777777777777  C 5.25 3.50752314814815  5.48828124999977 2.79137731481478  5.96484375 2.12934027777777  C 4.17578124999977 2.87413194444446  2.6875 3.99768518518516  1.5 5.5  C 2.5390625 6.80497685185185  3.841796875 7.84418402777777  5.408203125 8.61762152777777  C 6.974609375 9.39105902777777  8.671875 9.77777777777777  10.5 9.77777777777777  C 12.328125 9.77777777777777  14.025390625 9.39105902777777  15.591796875 8.61762152777777  Z M 10.8984375 2.15798611111114  C 11.0078125 2.06886574074076  11.0625 1.96064814814815  11.0625 1.83333333333337  C 11.0625 1.70601851851853  11.0078125 1.59780092592592  10.8984375 1.50868055555554  C 10.7890625 1.41956018518516  10.6562499999998 1.375  10.5 1.375  C 9.52343750000023 1.375  8.685546875 1.65986689814815  7.986328125 2.22960069444446  C 7.287109375 2.79933449074076  6.9375 3.48206018518516  6.9375 4.27777777777777  C 6.9375 4.40509259259261  6.9921875 4.51331018518516  7.1015625 4.60243055555554  C 7.21093749999977 4.69155092592592  7.34375 4.73611111111114  7.5 4.73611111111114  C 7.65625 4.73611111111114  7.7890625 4.69155092592592  7.8984375 4.60243055555554  C 8.0078125 4.51331018518516  8.0625 4.40509259259261  8.0625 4.27777777777777  C 8.0625 3.73032407407408  8.30078125 3.26244212962962  8.77734375 2.87413194444446  C 9.25390625 2.48582175925924  9.828125 2.29166666666663  10.5 2.29166666666663  C 10.6562499999998 2.29166666666663  10.7890625 2.24710648148147  10.8984375 2.15798611111114  Z M 20.765625 4.84114583333337  C 20.921875 5.06394675925924  21 5.28356481481478  21 5.5  C 21 5.71643518518516  20.921875 5.93605324074076  20.765625 6.15885416666663  C 19.671875 7.62297453703701  18.201171875 8.79586226851853  16.353515625 9.67751736111114  C 14.505859375 10.5591724537037  12.5546875 11  10.5 11  C 8.4453125 11  6.494140625 10.5575810185185  4.646484375 9.67274305555554  C 2.798828125 8.78790509259261  1.328125 7.6166087962963  0.234375 6.15885416666663  C 0.078125 5.93605324074076  0 5.71643518518516  0 5.5  C 0 5.28356481481478  0.078125 5.06394675925924  0.234375 4.84114583333337  C 1.328125 3.3833912037037  2.798828125 2.21209490740739  4.646484375 1.32725694444446  C 6.494140625 0.442418981481467  8.4453125 0  10.5 0  C 12.5546875 0  14.505859375 0.442418981481467  16.353515625 1.32725694444446  C 18.201171875 2.21209490740739  19.671875 3.3833912037037  20.765625 4.84114583333337  Z " fill-rule="nonzero" fill="#0854a1" stroke="none" transform="matrix(1 0 0 1 685 967 )" />
  </g>
</svg>