<?xml version="1.0" encoding="utf-8"?>
<svg version="1.1" xmlns:xlink="http://www.w3.org/1999/xlink" width="716px" height="102px" xmlns="http://www.w3.org/2000/svg">
  <defs>
    <mask fill="white" id="clip4301">
      <path d="M 643.934842293449 26  C 661.861577306935 29  693.638115870709 31.7628083649587  715.182375801166 35  L 715.038955065311 102  L 0.920526568954866 102  L 0.920526568954866 40  C 25.0101599042024 38.3977914814606  52.4205098592883 20  77.8953438258205 16  C 103.370177792353 12  110.399591935144 9  144.366037223854 7  C 178.332482512564 5  196.368559103552 1  221.22277646533 1  C 246.07699382711 1  268.918314695961 -1  288.732074447708 4  C 308.545834199455 9  342.221415419144 23  362.472999936151 21  C 382.724584453155 19  410.651239970478 14  429.982297918529 16  C 449.313355866578 18  481.984819798226 31  506.839037160005 30  C 531.693254521784 29  513.357425560587 22  572.271125973694 23  C 616.55161354384 23.7516161310468  616.527939090036 22.0182351905291  627.482562177974 23.4031488322223  C 631.102696915792 23.8608162428603  635.921749949697 24.6590264756426  643.934842293449 26  Z " fill-rule="evenodd" />
    </mask>
  </defs>
  <g transform="matrix(1 0 0 1 -876 -182 )">
    <path d="M 643.934842293449 26  C 661.861577306935 29  693.638115870709 31.7628083649587  715.182375801166 35  L 715.038955065311 102  L 0.920526568954866 102  L 0.920526568954866 40  C 25.0101599042024 38.3977914814606  52.4205098592883 20  77.8953438258205 16  C 103.370177792353 12  110.399591935144 9  144.366037223854 7  C 178.332482512564 5  196.368559103552 1  221.22277646533 1  C 246.07699382711 1  268.918314695961 -1  288.732074447708 4  C 308.545834199455 9  342.221415419144 23  362.472999936151 21  C 382.724584453155 19  410.651239970478 14  429.982297918529 16  C 449.313355866578 18  481.984819798226 31  506.839037160005 30  C 531.693254521784 29  513.357425560587 22  572.271125973694 23  C 616.55161354384 23.7516161310468  616.527939090036 22.0182351905291  627.482562177974 23.4031488322223  C 631.102696915792 23.8608162428603  635.921749949697 24.6590264756426  643.934842293449 26  Z " fill-rule="nonzero" fill="#ffffff" stroke="none" fill-opacity="0" transform="matrix(1 0 0 1 876 182 )" />
    <path d="M 643.934842293449 26  C 661.861577306935 29  693.638115870709 31.7628083649587  715.182375801166 35  L 715.038955065311 102  L 0.920526568954866 102  L 0.920526568954866 40  C 25.0101599042024 38.3977914814606  52.4205098592883 20  77.8953438258205 16  C 103.370177792353 12  110.399591935144 9  144.366037223854 7  C 178.332482512564 5  196.368559103552 1  221.22277646533 1  C 246.07699382711 1  268.918314695961 -1  288.732074447708 4  C 308.545834199455 9  342.221415419144 23  362.472999936151 21  C 382.724584453155 19  410.651239970478 14  429.982297918529 16  C 449.313355866578 18  481.984819798226 31  506.839037160005 30  C 531.693254521784 29  513.357425560587 22  572.271125973694 23  C 616.55161354384 23.7516161310468  616.527939090036 22.0182351905291  627.482562177974 23.4031488322223  C 631.102696915792 23.8608162428603  635.921749949697 24.6590264756426  643.934842293449 26  Z " stroke-width="4" stroke="#cccccc" fill="none" transform="matrix(1 0 0 1 876 182 )" mask="url(#clip4301)" />
  </g>
</svg>