<?xml version="1.0" encoding="utf-8"?>
<svg version="1.1" xmlns:xlink="http://www.w3.org/1999/xlink" width="715px" height="156px" xmlns="http://www.w3.org/2000/svg">
  <defs>
    <linearGradient gradientUnits="userSpaceOnUse" x1="357.5" y1="0" x2="357.5" y2="156" id="LinearGradient4302">
      <stop id="Stop4303" stop-color="#23cff5" stop-opacity="0.0784313725490196" offset="0" />
      <stop id="Stop4304" stop-color="#33ff99" stop-opacity="0" offset="0.99" />
      <stop id="Stop4305" stop-color="#33ff99" stop-opacity="0" offset="1" />
    </linearGradient>
    <linearGradient gradientUnits="userSpaceOnUse" x1="0" y1="78" x2="715" y2="78" id="LinearGradient4306">
      <stop id="Stop4307" stop-color="#23cff5" offset="0" />
      <stop id="Stop4308" stop-color="#33ff99" offset="1" />
    </linearGradient>
    <mask fill="white" id="clip4309">
      <path d="M 589.973821989529 50.8444444444444  C 599.382931987611 52.8303958353377  613.202237407414 54.3471657425914  627.001916065018 55.9838446741365  C 630.272400491806 56.3717329061803  639.502964107716 55.8323254353205  650.844959225551 54.9672518515046  C 675.184972127023 53.1107969710317  709.248867318931 49.7545354686145  715 50.8444444444444  L 715 156  L 0.843387470997754 156  L 0 69.3333333333333  C 22.0709489775452 67.4818923785766  44.9512485136744 35.8222222222222  68.2913198573128 31.2  C 91.6313912009515 26.5777777777778  102.004756242568 24.2666666666667  133.12485136742 21.9555555555555  C 164.244946492271 19.6444444444444  178.009951895629 0  200.781413612566 0  C 223.552875329503 0  246.367419738407 9.24444444444444  264.520808561236 15.0222222222222  C 282.674197384067 20.8  311.664262796194 48.5333333333333  330.218787158145 46.2222222222222  C 348.773311520093 43.9111111111111  374.335983527896 28.8888888888889  392.047120418848 31.2  C 409.758257309798 33.5111111111111  439.707729721826 61.2444444444444  462.479191438764 60.0888888888889  C 485.250653155701 58.9333333333333  472.471477718217 49.6888888888889  526.448275862069 50.8444444444444  C 580.42507400592 52  560.416330235088 44.6058371932793  589.973821989529 50.8444444444444  Z " fill-rule="evenodd" />
    </mask>
  </defs>
  <g transform="matrix(1 0 0 1 -877 -128 )">
    <path d="M 589.973821989529 50.8444444444444  C 599.382931987611 52.8303958353377  613.202237407414 54.3471657425914  627.001916065018 55.9838446741365  C 630.272400491806 56.3717329061803  639.502964107716 55.8323254353205  650.844959225551 54.9672518515046  C 675.184972127023 53.1107969710317  709.248867318931 49.7545354686145  715 50.8444444444444  L 715 156  L 0.843387470997754 156  L 0 69.3333333333333  C 22.0709489775452 67.4818923785766  44.9512485136744 35.8222222222222  68.2913198573128 31.2  C 91.6313912009515 26.5777777777778  102.004756242568 24.2666666666667  133.12485136742 21.9555555555555  C 164.244946492271 19.6444444444444  178.009951895629 0  200.781413612566 0  C 223.552875329503 0  246.367419738407 9.24444444444444  264.520808561236 15.0222222222222  C 282.674197384067 20.8  311.664262796194 48.5333333333333  330.218787158145 46.2222222222222  C 348.773311520093 43.9111111111111  374.335983527896 28.8888888888889  392.047120418848 31.2  C 409.758257309798 33.5111111111111  439.707729721826 61.2444444444444  462.479191438764 60.0888888888889  C 485.250653155701 58.9333333333333  472.471477718217 49.6888888888889  526.448275862069 50.8444444444444  C 580.42507400592 52  560.416330235088 44.6058371932793  589.973821989529 50.8444444444444  Z " fill-rule="nonzero" fill="url(#LinearGradient4302)" stroke="none" transform="matrix(1 0 0 1 877 128 )" />
    <path d="M 589.973821989529 50.8444444444444  C 599.382931987611 52.8303958353377  613.202237407414 54.3471657425914  627.001916065018 55.9838446741365  C 630.272400491806 56.3717329061803  639.502964107716 55.8323254353205  650.844959225551 54.9672518515046  C 675.184972127023 53.1107969710317  709.248867318931 49.7545354686145  715 50.8444444444444  L 715 156  L 0.843387470997754 156  L 0 69.3333333333333  C 22.0709489775452 67.4818923785766  44.9512485136744 35.8222222222222  68.2913198573128 31.2  C 91.6313912009515 26.5777777777778  102.004756242568 24.2666666666667  133.12485136742 21.9555555555555  C 164.244946492271 19.6444444444444  178.009951895629 0  200.781413612566 0  C 223.552875329503 0  246.367419738407 9.24444444444444  264.520808561236 15.0222222222222  C 282.674197384067 20.8  311.664262796194 48.5333333333333  330.218787158145 46.2222222222222  C 348.773311520093 43.9111111111111  374.335983527896 28.8888888888889  392.047120418848 31.2  C 409.758257309798 33.5111111111111  439.707729721826 61.2444444444444  462.479191438764 60.0888888888889  C 485.250653155701 58.9333333333333  472.471477718217 49.6888888888889  526.448275862069 50.8444444444444  C 580.42507400592 52  560.416330235088 44.6058371932793  589.973821989529 50.8444444444444  Z " stroke-width="4" stroke="url(#LinearGradient4306)" fill="none" transform="matrix(1 0 0 1 877 128 )" mask="url(#clip4309)" />
  </g>
</svg>