<?xml version="1.0" encoding="utf-8"?>
<svg version="1.1" xmlns:xlink="http://www.w3.org/1999/xlink" width="202px" height="30px" xmlns="http://www.w3.org/2000/svg">
  <defs>
    <mask fill="white" id="clip9716">
      <path d="M 0 26  L 0 4  C 0 1.75999999999999  1.70923076923076 0  3.88461538461539 0  L 198.115384615385 0  C 200.290769230769 0  202 1.75999999999999  202 4  L 202 26  C 202 28.24  200.290769230769 30  198.115384615385 30  L 3.88461538461539 30  C 1.70923076923076 30  0 28.24  0 26  Z " fill-rule="evenodd" />
    </mask>
  </defs>
  <g transform="matrix(1 0 0 1 -190 -249 )">
    <path d="M 0 26  L 0 4  C 0 1.75999999999999  1.70923076923076 0  3.88461538461539 0  L 198.115384615385 0  C 200.290769230769 0  202 1.75999999999999  202 4  L 202 26  C 202 28.24  200.290769230769 30  198.115384615385 30  L 3.88461538461539 30  C 1.70923076923076 30  0 28.24  0 26  Z " fill-rule="nonzero" fill="#ffffff" stroke="none" transform="matrix(1 0 0 1 190 249 )" />
    <path d="M 0 26  L 0 4  C 0 1.75999999999999  1.70923076923076 0  3.88461538461539 0  L 198.115384615385 0  C 200.290769230769 0  202 1.75999999999999  202 4  L 202 26  C 202 28.24  200.290769230769 30  198.115384615385 30  L 3.88461538461539 30  C 1.70923076923076 30  0 28.24  0 26  Z " stroke-width="2" stroke="#0a6ed1" fill="none" transform="matrix(1 0 0 1 190 249 )" mask="url(#clip9716)" />
  </g>
</svg>