<?xml version="1.0" encoding="utf-8"?>
<svg version="1.1" xmlns:xlink="http://www.w3.org/1999/xlink" width="718px" height="159px" xmlns="http://www.w3.org/2000/svg">
  <defs>
    <linearGradient gradientUnits="userSpaceOnUse" x1="359" y1="0" x2="359" y2="159" id="LinearGradient244">
      <stop id="Stop245" stop-color="#23cff5" stop-opacity="0.0784313725490196" offset="0" />
      <stop id="Stop246" stop-color="#33ff99" stop-opacity="0" offset="0.99" />
      <stop id="Stop247" stop-color="#33ff99" stop-opacity="0" offset="1" />
    </linearGradient>
    <linearGradient gradientUnits="userSpaceOnUse" x1="0" y1="79.5" x2="718" y2="79.5" id="LinearGradient248">
      <stop id="Stop249" stop-color="#23cff5" offset="0" />
      <stop id="Stop250" stop-color="#33ff99" offset="1" />
    </linearGradient>
    <mask fill="white" id="clip251">
      <path d="M 589.973821989529 50.8444444444444  C 604.399163274946 53.8891560692128  628.906831662031 55.8310697025923  648.032026518836 58.7930127135917  C 650.682514772458 59.2034971670748  719.36780104712 49.7555555555555  717 50.8444444444444  L 717 159  L 0.843387470997754 156  L 0 69.3333333333333  C 22.0709489775452 67.4818923785766  44.9512485136744 35.8222222222222  68.2913198573128 31.2  C 91.6313912009515 26.5777777777778  102.004756242568 24.2666666666667  133.12485136742 21.9555555555555  C 164.244946492271 19.6444444444444  178.009951895629 0  200.781413612566 0  C 223.552875329503 0  246.367419738407 9.24444444444444  264.520808561236 15.0222222222222  C 282.674197384067 20.8  311.664262796194 48.5333333333333  330.218787158145 46.2222222222222  C 348.773311520093 43.9111111111111  374.335983527896 28.8888888888889  392.047120418848 31.2  C 409.758257309798 33.5111111111111  439.707729721826 61.2444444444444  462.479191438764 60.0888888888889  C 485.250653155701 58.9333333333333  472.471477718217 49.6888888888889  526.448275862069 50.8444444444444  C 580.42507400592 52  560.416330235088 44.6058371932793  589.973821989529 50.8444444444444  Z " fill-rule="evenodd" />
    </mask>
  </defs>
  <g transform="matrix(1 0 0 1 -6 0 )">
    <path d="M 589.973821989529 50.8444444444444  C 604.399163274946 53.8891560692128  628.906831662031 55.8310697025923  648.032026518836 58.7930127135917  C 650.682514772458 59.2034971670748  719.36780104712 49.7555555555555  717 50.8444444444444  L 717 159  L 0.843387470997754 156  L 0 69.3333333333333  C 22.0709489775452 67.4818923785766  44.9512485136744 35.8222222222222  68.2913198573128 31.2  C 91.6313912009515 26.5777777777778  102.004756242568 24.2666666666667  133.12485136742 21.9555555555555  C 164.244946492271 19.6444444444444  178.009951895629 0  200.781413612566 0  C 223.552875329503 0  246.367419738407 9.24444444444444  264.520808561236 15.0222222222222  C 282.674197384067 20.8  311.664262796194 48.5333333333333  330.218787158145 46.2222222222222  C 348.773311520093 43.9111111111111  374.335983527896 28.8888888888889  392.047120418848 31.2  C 409.758257309798 33.5111111111111  439.707729721826 61.2444444444444  462.479191438764 60.0888888888889  C 485.250653155701 58.9333333333333  472.471477718217 49.6888888888889  526.448275862069 50.8444444444444  C 580.42507400592 52  560.416330235088 44.6058371932793  589.973821989529 50.8444444444444  Z " fill-rule="nonzero" fill="url(#LinearGradient244)" stroke="none" transform="matrix(1 0 0 1 6 0 )" />
    <path d="M 589.973821989529 50.8444444444444  C 604.399163274946 53.8891560692128  628.906831662031 55.8310697025923  648.032026518836 58.7930127135917  C 650.682514772458 59.2034971670748  719.36780104712 49.7555555555555  717 50.8444444444444  L 717 159  L 0.843387470997754 156  L 0 69.3333333333333  C 22.0709489775452 67.4818923785766  44.9512485136744 35.8222222222222  68.2913198573128 31.2  C 91.6313912009515 26.5777777777778  102.004756242568 24.2666666666667  133.12485136742 21.9555555555555  C 164.244946492271 19.6444444444444  178.009951895629 0  200.781413612566 0  C 223.552875329503 0  246.367419738407 9.24444444444444  264.520808561236 15.0222222222222  C 282.674197384067 20.8  311.664262796194 48.5333333333333  330.218787158145 46.2222222222222  C 348.773311520093 43.9111111111111  374.335983527896 28.8888888888889  392.047120418848 31.2  C 409.758257309798 33.5111111111111  439.707729721826 61.2444444444444  462.479191438764 60.0888888888889  C 485.250653155701 58.9333333333333  472.471477718217 49.6888888888889  526.448275862069 50.8444444444444  C 580.42507400592 52  560.416330235088 44.6058371932793  589.973821989529 50.8444444444444  Z " stroke-width="4" stroke="url(#LinearGradient248)" fill="none" transform="matrix(1 0 0 1 6 0 )" mask="url(#clip251)" />
  </g>
</svg>