<?xml version="1.0" encoding="utf-8"?>
<svg version="1.1" xmlns:xlink="http://www.w3.org/1999/xlink" width="714px" height="102px" xmlns="http://www.w3.org/2000/svg">
  <defs>
    <mask fill="white" id="clip252">
      <path d="M 655.119489557045 30  C 671.543984206272 33  694.261124979916 22.7628083649587  714 26  L 714 102  L 0.843387470997754 102  L 0.843387470997754 40  C 22.9143364485429 38.3977914814606  48.027729703482 20  71.3678010471205 16  C 94.707872390759 12  101.148229482478 9  132.26832460733 7  C 163.388419732181 5  179.913093256886 1  202.684554973822 1  C 225.45601669076 1  246.38326039183 -1  264.53664921466 4  C 282.69003803749 9  313.543643177316 23  332.098167539267 21  C 350.652691901215 19  376.239124889153 14  393.950261780105 16  C 411.661398671055 18  441.59503042966 31  464.366492146597 30  C 487.137953863534 29  470.338646882326 22  524.315445026178 23  C 564.885277213351 23.7516161310468  564.863586652324 22.0182351905291  574.900224565294 23.4031488322223  C 578.216996056926 23.8608162428603  647.777885398523 28.6590264756426  655.119489557045 30  Z " fill-rule="evenodd" />
    </mask>
  </defs>
  <g transform="matrix(1 0 0 1 -5 -54 )">
    <path d="M 655.119489557045 30  C 671.543984206272 33  694.261124979916 22.7628083649587  714 26  L 714 102  L 0.843387470997754 102  L 0.843387470997754 40  C 22.9143364485429 38.3977914814606  48.027729703482 20  71.3678010471205 16  C 94.707872390759 12  101.148229482478 9  132.26832460733 7  C 163.388419732181 5  179.913093256886 1  202.684554973822 1  C 225.45601669076 1  246.38326039183 -1  264.53664921466 4  C 282.69003803749 9  313.543643177316 23  332.098167539267 21  C 350.652691901215 19  376.239124889153 14  393.950261780105 16  C 411.661398671055 18  441.59503042966 31  464.366492146597 30  C 487.137953863534 29  470.338646882326 22  524.315445026178 23  C 564.885277213351 23.7516161310468  564.863586652324 22.0182351905291  574.900224565294 23.4031488322223  C 578.216996056926 23.8608162428603  647.777885398523 28.6590264756426  655.119489557045 30  Z " fill-rule="nonzero" fill="#ffffff" stroke="none" fill-opacity="0" transform="matrix(1 0 0 1 5 54 )" />
    <path d="M 655.119489557045 30  C 671.543984206272 33  694.261124979916 22.7628083649587  714 26  L 714 102  L 0.843387470997754 102  L 0.843387470997754 40  C 22.9143364485429 38.3977914814606  48.027729703482 20  71.3678010471205 16  C 94.707872390759 12  101.148229482478 9  132.26832460733 7  C 163.388419732181 5  179.913093256886 1  202.684554973822 1  C 225.45601669076 1  246.38326039183 -1  264.53664921466 4  C 282.69003803749 9  313.543643177316 23  332.098167539267 21  C 350.652691901215 19  376.239124889153 14  393.950261780105 16  C 411.661398671055 18  441.59503042966 31  464.366492146597 30  C 487.137953863534 29  470.338646882326 22  524.315445026178 23  C 564.885277213351 23.7516161310468  564.863586652324 22.0182351905291  574.900224565294 23.4031488322223  C 578.216996056926 23.8608162428603  647.777885398523 28.6590264756426  655.119489557045 30  Z " stroke-width="4" stroke="#cccccc" fill="none" transform="matrix(1 0 0 1 5 54 )" mask="url(#clip252)" />
  </g>
</svg>